<svg width="113" height="116" viewBox="0 0 113 116" fill="none" xmlns="http://www.w3.org/2000/svg">
<path d="M50.7588 0.876332C42.9004 -0.61177 34.7609 -0.242542 27.1724 2.27492C15.2343 6.23854 1.32814 16.3392 0.130395 41.7908C-2.0008 87.0408 22.2099 110.828 56.801 115.664C82.9488 119.32 100.583 92.1904 107.629 78.7416C111.248 71.9002 113.093 64.268 112.996 56.5375C112.698 38.9404 103.474 10.8539 50.7588 0.876332Z" fill="url(#paint0_linear_215_139)"/>
<path d="M78.2431 34.8907L38.2976 30.6743C30.8628 29.8896 25.5327 37.7147 28.9746 44.3648C30.3334 46.9912 31.0214 49.915 30.9772 52.875C30.9331 55.835 30.7636 58.2006 28.7214 61.3274C26.6792 64.4542 20.7402 71.6022 20.7402 71.6022C20.5873 71.8771 20.5048 72.1855 20.5 72.5C20.4952 72.8145 20.5682 73.1251 20.7125 73.4041C20.8569 73.6832 21.068 73.9219 21.3271 74.0989C21.5861 74.276 21.8851 74.3858 22.1971 74.4186C22.1971 74.4186 30.7296 73.9532 34.3093 73.4904C37.8889 73.0276 40.5059 74.9414 43.1337 76.7381C45.7614 78.5348 47.9034 80.9565 49.3683 83.7869C52.8189 90.4394 62.265 90.5672 65.9032 84.0086L85.4468 48.7982C86.1994 47.4398 86.605 45.9162 86.6273 44.3635C86.6495 42.8107 86.2878 41.2772 85.5743 39.8998C84.8609 38.5224 83.8179 37.3441 82.5387 36.47C81.2594 35.5959 79.7836 35.0533 78.2431 34.8907Z" fill="black"/>
<defs>
<linearGradient id="paint0_linear_215_139" x1="56.4989" y1="0.000458122" x2="56.4989" y2="116" gradientUnits="userSpaceOnUse">
<stop stop-color="#FCD34D"/>
<stop offset="1" stop-color="#F59E0B"/>
</linearGradient>
</defs>
</svg>
